# xmcd CD database file
#
# Track frame offsets:
#	150
#	11749
#	28480
#	43640
#	51864
#	70272
#	81130
#	90760
#	101647
#	118367
#	127678
#	138104
#	148434
#	158446
#	169092
#	180770
#	191022
#
# Disc length: 2666 seconds
#
# Revision: 4
# Processed by: cddbd v1.5.2PL0 Copyright (c) Steve Scherf et al.
# Submitted via: CDex 1.70beta2
#
DISCID=df0a6811
DTITLE=Eva Henychová - Svítání
DYEAR=1996
DGENRE=Folk
TTITLE0=Svítání
TTITLE1=Čarodejnice
TTITLE2=Racek
TTITLE3=Nejkrásnější lásko
TTITLE4=Létu
TTITLE5=Ještě není pozdě
TTITLE6=Na dobrou noc
TTITLE7=Odpouštím
TTITLE8=Krčmář
TTITLE9=Ano
TTITLE10=Žluťásek
TTITLE11=Růže podzimní
TTITLE12=Vítej
TTITLE13=Proč
TTITLE14=Houpej mě
TTITLE15=Modlitba
TTITLE16=Maria
EXTD=YEAR: 1996
EXTT0=
EXTT1=
EXTT2=
EXTT3=
EXTT4=
EXTT5=
EXTT6=
EXTT7=
EXTT8=
EXTT9=
EXTT10=
EXTT11=
EXTT12=
EXTT13=
EXTT14=
EXTT15=
EXTT16=
PLAYORDER=
